<?xml version="1.0" encoding="utf-8" ?>
<svg xmlns="http://www.w3.org/2000/svg">
    <defs>
        <symbol id="play" viewBox="0 0 24 24" fill="none" stroke-width="1.5">
            <path d="M6.90588 4.53682C6.50592 4.2998 6 4.58808 6 5.05299V18.947C6 19.4119 6.50592 19.7002 6.90588 19.4632L18.629 12.5162C19.0211 12.2838 19.0211 11.7162 18.629 11.4838L6.90588 4.53682Z" fill="currentColor" stroke="currentColor" stroke-width="1.5" stroke-linecap="round" stroke-linejoin="round"/>
        </symbol>
        <symbol id="pause" viewBox="0 0 24 24" fill="none" stroke-width="1.5">
            <path d="M6 18.4V5.6C6 5.26863 6.26863 5 6.6 5H9.4C9.73137 5 10 5.26863 10 5.6V18.4C10 18.7314 9.73137 19 9.4 19H6.6C6.26863 19 6 18.7314 6 18.4Z" fill="currentColor" stroke="currentColor" stroke-width="1.5"/>
            <path d="M14 18.4V5.6C14 5.26863 14.2686 5 14.6 5H17.4C17.7314 5 18 5.26863 18 5.6V18.4C18 18.7314 17.7314 19 17.4 19H14.6C14.2686 19 14 18.7314 14 18.4Z" fill="currentColor" stroke="currentColor" stroke-width="1.5"/>
        </symbol>
        <symbol id="reset" viewBox="0 0 24 24" fill="none" color="currentColor" stroke-width="1.5">
            <path d="M6 7V17" stroke="currentColor" stroke-width="1.5" stroke-linecap="round" stroke-linejoin="round"/>
            <path d="M17.0282 5.2672C17.4217 4.95657 18 5.23682 18 5.73813V18.2619C18 18.7632 17.4217 19.0434 17.0282 18.7328L9.09651 12.4709C8.79223 12.2307 8.79223 11.7693 9.09651 11.5291L17.0282 5.2672Z" fill="currentColor" stroke="currentColor" stroke-width="1.5" stroke-linecap="round" stroke-linejoin="round"/>
        </symbol>
        <symbol id="dice" viewBox="0 0 24 24" stroke-width="1.5" fill="none" color="currentColor">
            <path d="M3 20.4V3.6C3 3.26863 3.26863 3 3.6 3H20.4C20.7314 3 21 3.26863 21 3.6V20.4C21 20.7314 20.7314 21 20.4 21H3.6C3.26863 21 3 20.7314 3 20.4Z" stroke="currentColor" stroke-width="1.5"/>
            <path d="M7.5 8C7.22386 8 7 7.77614 7 7.5C7 7.22386 7.22386 7 7.5 7C7.77614 7 8 7.22386 8 7.5C8 7.77614 7.77614 8 7.5 8Z" fill="currentColor" stroke="currentColor" stroke-width="1.5" stroke-linecap="round" stroke-linejoin="round"/>
            <path d="M16.5 8C16.2239 8 16 7.77614 16 7.5C16 7.22386 16.2239 7 16.5 7C16.7761 7 17 7.22386 17 7.5C17 7.77614 16.7761 8 16.5 8Z" fill="currentColor" stroke="currentColor" stroke-width="1.5" stroke-linecap="round" stroke-linejoin="round"/>
            <path d="M12 12.5C11.7239 12.5 11.5 12.2761 11.5 12C11.5 11.7239 11.7239 11.5 12 11.5C12.2761 11.5 12.5 11.7239 12.5 12C12.5 12.2761 12.2761 12.5 12 12.5Z" fill="currentColor" stroke="currentColor" stroke-width="1.5" stroke-linecap="round" stroke-linejoin="round"/>
            <path d="M7.5 17C7.22386 17 7 16.7761 7 16.5C7 16.2239 7.22386 16 7.5 16C7.77614 16 8 16.2239 8 16.5C8 16.7761 7.77614 17 7.5 17Z" fill="currentColor" stroke="currentColor" stroke-width="1.5" stroke-linecap="round" stroke-linejoin="round"/>
            <path d="M16.5 17C16.2239 17 16 16.7761 16 16.5C16 16.2239 16.2239 16 16.5 16C16.7761 16 17 16.2239 17 16.5C17 16.7761 16.7761 17 16.5 17Z" fill="currentColor" stroke="currentColor" stroke-width="1.5" stroke-linecap="round" stroke-linejoin="round"/>
        </symbol>
        <symbol id="checked" viewBox="0 0 24 24" fill="none" color="currentColor" stroke-width="1.5">
            <path fill-rule="evenodd" clip-rule="evenodd" d="M3.6 2.25C2.85442 2.25 2.25 2.85441 2.25 3.6V20.4C2.25 21.1456 2.85441 21.75 3.6 21.75H20.4C21.1456 21.75 21.75 21.1456 21.75 20.4V3.6C21.75 2.85442 21.1456 2.25 20.4 2.25H3.6ZM17.5303 9.03033C17.8232 8.73744 17.8232 8.26256 17.5303 7.96967C17.2374 7.67678 16.7626 7.67678 16.4697 7.96967L10 14.4393L7.53033 11.9697C7.23744 11.6768 6.76256 11.6768 6.46967 11.9697C6.17678 12.2626 6.17678 12.7374 6.46967 13.0303L9.46967 16.0303C9.76256 16.3232 10.2374 16.3232 10.5303 16.0303L17.5303 9.03033Z" fill="currentColor"/>
        </symbol>
        <symbol id="comparison" viewBox="0 0 24 24" stroke-width="1.5" fill="none" color="currentColor">
            <path fill-rule="evenodd" clip-rule="evenodd" d="M2.25 7C2.25 6.58579 2.58579 6.25 3 6.25H7C10.1756 6.25 12.75 8.82441 12.75 12V21C12.75 21.4142 12.4142 21.75 12 21.75C11.5858 21.75 11.25 21.4142 11.25 21V12C11.25 9.65283 9.3472 7.75 7 7.75H3C2.58579 7.75 2.25 7.41421 2.25 7Z" fill="currentColor"/>
            <path fill-rule="evenodd" clip-rule="evenodd" d="M17 7.75C14.6528 7.75 12.75 9.65283 12.75 12V21C12.75 21.4142 12.4142 21.75 12 21.75C11.5858 21.75 11.25 21.4142 11.25 21V12C11.25 8.82441 13.8244 6.25 17 6.25H21C21.4142 6.25 21.75 6.58579 21.75 7C21.75 7.41421 21.4142 7.75 21 7.75H17Z" fill="currentColor"/>
            <path fill-rule="evenodd" clip-rule="evenodd" d="M7.28701 2.30711C7.56727 2.4232 7.75 2.69668 7.75 3.00002V11C7.75 11.3034 7.56727 11.5768 7.28701 11.6929C7.00676 11.809 6.68417 11.7449 6.46967 11.5304L2.46967 7.53035C2.17678 7.23746 2.17678 6.76259 2.46967 6.46969L6.46967 2.46969C6.68417 2.25519 7.00676 2.19103 7.28701 2.30711Z" fill="currentColor"/>
            <path fill-rule="evenodd" clip-rule="evenodd" d="M16.713 2.30711C16.4327 2.4232 16.25 2.69668 16.25 3.00002V11C16.25 11.3034 16.4327 11.5768 16.713 11.6929C16.9932 11.809 17.3158 11.7449 17.5303 11.5304L21.5303 7.53035C21.8232 7.23746 21.8232 6.76259 21.5303 6.46969L17.5303 2.46969C17.3158 2.25519 16.9932 2.19103 16.713 2.30711Z" fill="currentColor"/>
        </symbol>
        <symbol id="speedometer" stroke-width="1.5" viewBox="0 0 24 24" fill="none" color="currentColor">
            <path d="M12 4L12 8" stroke="currentColor" stroke-width="1.5" stroke-linecap="round" stroke-linejoin="round"/>
            <path d="M4 8L6.5 10.5" stroke="currentColor" stroke-width="1.5" stroke-linecap="round" stroke-linejoin="round"/>
            <path d="M17.5 10.5L20 8" stroke="currentColor" stroke-width="1.5" stroke-linecap="round" stroke-linejoin="round"/>
            <path d="M3 17H6" stroke="currentColor" stroke-width="1.5" stroke-linecap="round" stroke-linejoin="round"/>
            <path d="M12 17L13 11" stroke="currentColor" stroke-width="1.5" stroke-linecap="round" stroke-linejoin="round"/>
            <path d="M18 17H21" stroke="currentColor" stroke-width="1.5" stroke-linecap="round" stroke-linejoin="round"/>
            <path d="M8.5 20.001H4C2.74418 18.3295 2 16.2516 2 14C2 8.47715 6.47715 4 12 4C17.5228 4 22 8.47715 22 14C22 16.2516 21.2558 18.3295 20 20.001L15.5 20" stroke="currentColor" stroke-width="1.5" stroke-linecap="round" stroke-linejoin="round"/>
            <path d="M12 23C13.6569 23 15 21.6569 15 20C15 18.3431 13.6569 17 12 17C10.3431 17 9 18.3431 9 20C9 21.6569 10.3431 23 12 23Z" stroke="currentColor" stroke-width="1.5" stroke-linecap="round" stroke-linejoin="round"/>
        </symbol>
        <symbol id="chevron-down" viewBox="0 0 24 24" stroke-width="1.5" fill="none" color="currentColor">
            <path fill-rule="evenodd" clip-rule="evenodd" d="M5.30711 8.71299C5.4232 8.43273 5.69668 8.25 6.00002 8.25H18C18.3034 8.25 18.5768 8.43273 18.6929 8.71299C18.809 8.99324 18.7449 9.31583 18.5304 9.53033L12.5304 15.5303C12.2375 15.8232 11.7626 15.8232 11.4697 15.5303L5.46969 9.53033C5.25519 9.31583 5.19103 8.99324 5.30711 8.71299Z" fill="currentColor"/>
        </symbol>
    </defs>
</svg>
